<svg id="Layer_1" data-name="Layer 1" xmlns="http://www.w3.org/2000/svg" viewBox="0 0 64 64"><defs><style>.cls-1{fill:#222324;}</style></defs><path class="cls-1" d="M18.42,39.69H10.09L8.9,44.94H4.07l5.84-24.5h8.68l5.85,24.5H19.61Zm-7.35-4.41H17.4L14.57,22.75h-.63Z"/><path class="cls-1" d="M26.4,27.58H37.53V48.37a3.43,3.43,0,0,1-1,2.69,3.74,3.74,0,0,1-2.56.88H25.77v-4.2h6.3c.7,0,1-.39,1-1.16V31.78H26.4Zm12.18-5.15a3.2,3.2,0,0,1-.27,1.31,3.09,3.09,0,0,1-.71,1.05,3.54,3.54,0,0,1-1.07.7,3.13,3.13,0,0,1-1.28.27A3.07,3.07,0,0,1,34,25.49a3.45,3.45,0,0,1-1.05-.7,3.12,3.12,0,0,1-.72-1.05,3.43,3.43,0,0,1,0-2.62,3.12,3.12,0,0,1,.72-1.05,3.45,3.45,0,0,1,1.05-.7,3.07,3.07,0,0,1,1.29-.26,3.12,3.12,0,0,1,1.28.26,3.54,3.54,0,0,1,1.07.7,3.09,3.09,0,0,1,.71,1.05A3.2,3.2,0,0,1,38.58,22.43Z"/><path class="cls-1" d="M42,40.53h2.31V24.85H42V20.44H52.79a8.91,8.91,0,0,1,3.09.49,6.72,6.72,0,0,1,2.28,1.33,5.45,5.45,0,0,1,1.4,2A6.83,6.83,0,0,1,60,26.81v.42a4.74,4.74,0,0,1-1.17,3.36,6.2,6.2,0,0,1-3,1.75V33a6.07,6.07,0,0,1,3,1.76A4.81,4.81,0,0,1,60,38.11v.42a6.83,6.83,0,0,1-.47,2.54,5.6,5.6,0,0,1-1.4,2,6.76,6.76,0,0,1-2.28,1.35,9.15,9.15,0,0,1-3.09.49H42ZM49,30.45h3.36a4.18,4.18,0,0,0,2.38-.62,2.3,2.3,0,0,0,.91-2.08v-.21a2.31,2.31,0,0,0-.91-2.08,4.18,4.18,0,0,0-2.38-.61H49Zm0,10.08h3.36a4.11,4.11,0,0,0,2.38-.63,2.36,2.36,0,0,0,.91-2.1v-.21a2.36,2.36,0,0,0-.91-2.1,4.11,4.11,0,0,0-2.38-.63H49Z"/></svg>