<svg version="1" xmlns="http://www.w3.org/2000/svg" width="933.333" height="933.333" viewBox="0 0 700.000000 700.000000"><path d="M375.1 210.7c-9.6 3.3-17.3 10-21.5 18.6-7.1 14.6-4 31.6 7.9 42.5 20.6 19 52.9 8.7 59.6-19.1 1.6-6.5.5-16.7-2.4-23-3.1-6.8-10.1-13.7-17.4-17.2-7.1-3.4-19.1-4.3-26.2-1.8zM109 224c-.8.6-1.9 3.7-2.6 7.7-.3 1.6-1.1 5-1.8 7.8-1.2 4.2-2.4 9.3-5.1 21.5-.2.8-1.9 8.2-3.9 16.3-2 8.2-3.8 15.8-4 17-.3 1.2-.7 3.2-1 4.4-.4 1.3-.8 3.1-1 4-.3 1-1.2 4.7-2.1 8.3-.9 3.6-1.8 7.6-2.1 8.9-.3 1.3-2.1 9-4 17-2 8-3.7 15.3-3.9 16.1-.2.8-.9 3.7-1.5 6.5-.6 2.7-1.3 5.7-1.5 6.5-.2.8-4.3 17.7-9 37.5-4.8 19.8-9.3 38.9-10.1 42.5-.8 3.5-1.8 7.8-2.4 9.5-.5 1.6-1.2 4.3-1.4 6-.3 1.6-1.9 8.5-3.6 15.3-1.6 6.8-3 12.9-3 13.5 0 .9 6.5 1.2 26 1.2 14.2-.1 26.1-.3 26.3-.5.3-.3 1.2-3.9 2-8 .9-4.1 3.7-16.5 6.2-27.4 2.5-10.9 4.5-20.3 4.5-20.7 0-.5 20.6-.9 45.8-.9h45.7l6.4 28.7 6.5 28.8h26.3c14.5 0 26.3-.4 26.3-.8 0-.5-2-9.2-4.5-19.5s-5.7-23.7-7.1-29.7c-3.1-13.2-3.3-14-3.8-16.3-3-12.1-6.9-28.1-7.2-29.7-.2-1.1-1-4.7-1.8-8-.9-3.3-2.9-11.9-4.6-19-1.7-7.2-5.8-24.3-9.1-38-3.3-13.8-6.6-27.7-7.4-31-.8-3.3-3.7-15.4-6.5-26.8-2.7-11.4-5.2-21.8-5.4-23-.5-2.6-4.2-17.6-5.6-22.7l-.9-3.5h-46.7c-25.6 0-46.9.2-47.4.5zm51.1 27c.1 1.1.2 2.3.3 2.7 1.3 5.5 2.9 12.6 3.7 15.8.5 2.2 1.1 4.9 1.4 6 .2 1.1 1.3 6.3 2.5 11.5s2.4 10.4 2.6 11.5c1 4.9 1.4 6.5 3.2 14.5 10.5 45.8 16.1 70.8 16.2 72.2 0 .5-15.6.8-34.6.8-32.4 0-34.5-.1-34-1.8.3-.9 2.1-8.9 4.1-17.7 2-8.8 4.2-18.7 5-22 1.8-7.4 7.6-32.4 8-34.5.2-.8 1.5-6.7 3-13s2.9-12.4 3-13.5c.6-3.1 1.4-6.5 2-8.5.3-1 .8-2.9 1-4.2.3-1.3 1.5-6.7 2.7-12.1l2.1-9.7h3.9c3.1 0 3.8.4 3.9 2zM459.6 224c-.2.3-.3 11.1-.2 24l.1 23.5 12 .2c6.6.1 12.3.2 12.6.2.3.1.5 38.6.5 85.6V443l-4.5.1h-12.3c-4.3 0-7.9.3-7.9.7-.1.4-.3 11.2-.4 23.9l-.2 23.3h19.6c62.2.1 109-.1 112.1-.6 1.9-.3 4.6-.7 6-1 1.4-.3 3.8-.7 5.5-1 8.6-1.6 22.7-8.6 30.9-15.5 15.1-12.6 22.5-29.8 22.7-52.6.1-16.7-1.9-24.2-9.3-35.3-6.4-9.7-14.9-16-29.8-22-4.5-1.9-6.5-3.2-6.4-4.3.1-1 .2-2.5.3-3.5.1-1.2 1.6-2.2 4.9-3.2 9.2-2.7 20.5-10 27.9-18 4.5-4.8 8.9-13.4 10.9-21.1 2.2-8.2 2.1-25.7-.1-36.4-5.5-26.9-27.6-46.2-59-51.6-7-1.2-135.4-2.1-135.9-.9zm128.1 49.9c15.9 4.8 21.2 12.4 20.8 29.6-.3 14-5.3 21.7-17.2 26.6-5.4 2.2-7.3 2.3-30.5 2.7l-24.8.4v-30.5c0-19.5.4-30.7 1-30.9.5-.2 10.7-.2 22.5-.2 18.6.2 22.3.5 28.2 2.3zm-4.4 108.2c12.4 2.7 20.2 8.5 23.7 17.6 1.4 3.8 1.8 7 1.6 13.9-.6 15.9-5.2 22.2-20.1 27.3-5.7 2-9 2.2-34.3 2.4l-18.2.2v-30.6c0-16.8.3-30.8.6-31.1.9-1 42.2-.6 46.7.3zM289.2 301.7c-.4.2-.6 4.2-.5 9 .1 4.9.2 15.1.2 22.8l.1 14h36c35.3 0 36.1 0 36.5 2 .2 1.1.3 38.7.2 83.5-.3 87.6-.2 85.5-5.4 87.9-1.7.8-13.8 1.1-38.4 1.1H282v4.8c-.2 30.5-.1 40.4.3 40.8.5.5 94.1.5 96.7 0 14.6-2.7 24.4-10.3 29.2-22.6l2.1-5.5.1-119 .1-118.9-60.3-.1c-33.1 0-60.5.1-61 .2z"/></svg>